<svg width="44" height="32" viewBox="0 0 44 32" fill="none" xmlns="http://www.w3.org/2000/svg">
<path d="M8.61 21.9C9.52 21.9 10.255 21.7542 10.815 21.4625C11.375 21.1708 11.725 20.9608 11.865 20.8325L13.3525 23.02C13.2358 23.125 12.9558 23.2942 12.5125 23.5275C12.0808 23.7492 11.5208 23.9533 10.8325 24.14C10.1558 24.3267 9.38583 24.42 8.5225 24.42C7.20417 24.42 5.97917 24.1283 4.8475 23.545C3.71583 22.95 2.8 22.0867 2.1 20.955C1.41167 19.8233 1.0675 18.4408 1.0675 16.8075C1.0675 15.1625 1.41167 13.78 2.1 12.66C2.8 11.5283 3.71583 10.6708 4.8475 10.0875C5.97917 9.50417 7.20417 9.2125 8.5225 9.2125C9.37417 9.2125 10.1325 9.3175 10.7975 9.5275C11.4625 9.72583 12.0108 9.9475 12.4425 10.1925C12.8742 10.4375 13.16 10.6242 13.3 10.7525L11.795 12.94C11.7017 12.8467 11.5208 12.7067 11.2525 12.52C10.9958 12.3217 10.6458 12.1408 10.2025 11.9775C9.75917 11.8142 9.22833 11.7325 8.61 11.7325C7.86333 11.7325 7.13417 11.9367 6.4225 12.345C5.7225 12.7417 5.145 13.3192 4.69 14.0775C4.235 14.8358 4.0075 15.7458 4.0075 16.8075C4.0075 17.8692 4.235 18.785 4.69 19.555C5.145 20.3133 5.7225 20.8967 6.4225 21.305C7.13417 21.7017 7.86333 21.9 8.61 21.9Z" fill="white"/>
<path d="M37.61 21.9C38.52 21.9 39.255 21.7542 39.815 21.4625C40.375 21.1708 40.725 20.9608 40.865 20.8325L42.3525 23.02C42.2358 23.125 41.9558 23.2942 41.5125 23.5275C41.0808 23.7492 40.5208 23.9533 39.8325 24.14C39.1558 24.3267 38.3858 24.42 37.5225 24.42C36.2042 24.42 34.9792 24.1283 33.8475 23.545C32.7158 22.95 31.8 22.0867 31.1 20.955C30.4117 19.8233 30.0675 18.4408 30.0675 16.8075C30.0675 15.1625 30.4117 13.78 31.1 12.66C31.8 11.5283 32.7158 10.6708 33.8475 10.0875C34.9792 9.50417 36.2042 9.2125 37.5225 9.2125C38.3742 9.2125 39.1325 9.3175 39.7975 9.5275C40.4625 9.72583 41.0108 9.9475 41.4425 10.1925C41.8742 10.4375 42.16 10.6242 42.3 10.7525L40.795 12.94C40.7017 12.8467 40.5208 12.7067 40.2525 12.52C39.9958 12.3217 39.6458 12.1408 39.2025 11.9775C38.7592 11.8142 38.2283 11.7325 37.61 11.7325C36.8633 11.7325 36.1342 11.9367 35.4225 12.345C34.7225 12.7417 34.145 13.3192 33.69 14.0775C33.235 14.8358 33.0075 15.7458 33.0075 16.8075C33.0075 17.8692 33.235 18.785 33.69 19.555C34.145 20.3133 34.7225 20.8967 35.4225 21.305C36.1342 21.7017 36.8633 21.9 37.61 21.9Z" fill="white"/>
<rect x="39.8992" y="14.0043" width="4.89505" height="4.89505" rx="2.44752" transform="rotate(89.7553 39.8992 14.0043)" fill="black" stroke="black" stroke-width="2"/>
<rect x="10.9066" y="14.8311" width="4.89505" height="4.89505" rx="2.44752" transform="rotate(89.7553 10.9066 14.8311)" fill="black" stroke="black" stroke-width="2"/>
<path d="M22.87 9.2125C23.815 9.2125 24.7308 9.41083 25.6175 9.8075C26.5158 10.2042 27.2508 10.8342 27.8225 11.6975C28.4058 12.5492 28.6975 13.6633 28.6975 15.04V24H25.6175V15.635C25.6175 14.2117 25.285 13.1792 24.62 12.5375C23.955 11.8842 23.0975 11.5575 22.0475 11.5575C21.3592 11.5575 20.6942 11.7558 20.0525 12.1525C19.4225 12.5375 18.9033 13.0742 18.495 13.7625C18.0867 14.4392 17.8825 15.2092 17.8825 16.0725V24H14.8375V9.6325H17.8825V12.1875C17.9875 11.7908 18.2733 11.3592 18.74 10.8925C19.2067 10.4258 19.8017 10.0292 20.525 9.7025C21.2483 9.37583 22.03 9.2125 22.87 9.2125Z" fill="white"/>
<path d="M33.8419 20.944C33.5507 21.1187 33.2364 21.2821 32.9013 21.4323C33.6974 20.8511 34.4132 20.2235 35.0242 19.6669C35.2244 19.4845 35.406 19.3166 35.5759 19.1594C35.6893 19.0546 35.7976 18.9545 35.9026 18.8582C35.5665 19.5928 34.8881 20.3163 33.8419 20.944ZM22.1391 21.1788C21.9608 21.0765 21.7906 20.9696 21.6287 20.8586C20.8531 20.3269 20.2928 19.7223 19.9423 19.0958C20.0784 19.2373 20.2161 19.3797 20.3441 19.5101C20.8616 20.0372 21.4643 20.6234 22.1391 21.1788Z" stroke="black" stroke-width="2"/>
<path d="M20.6474 14.366C20.756 14.4338 20.8613 14.5037 20.9632 14.5756C21.6514 15.0612 22.1664 15.6209 22.498 16.2183C22.4293 16.1439 22.358 16.0669 22.2835 15.9871C21.8096 15.4788 21.2587 14.9082 20.6474 14.366ZM23.9185 17.66C23.9185 17.6601 23.917 17.6593 23.9139 17.6574C23.9169 17.659 23.9185 17.6599 23.9185 17.66Z" stroke="black" stroke-width="2"/>
</svg>
